<svg width="64" height="64" viewBox="0 0 64 64" fill="none" xmlns="http://www.w3.org/2000/svg">
<path d="M61.3333 50.6667C61.3333 52.0812 60.7714 53.4377 59.7712 54.4379C58.771 55.4381 57.4145 56 56 56H8C6.58552 56 5.22896 55.4381 4.22877 54.4379C3.22857 53.4377 2.66667 52.0812 2.66667 50.6667V21.3333C2.66667 19.9188 3.22857 18.5623 4.22877 17.5621C5.22896 16.5619 6.58552 16 8 16H18.6667L24 8H40L45.3333 16H56C57.4145 16 58.771 16.5619 59.7712 17.5621C60.7714 18.5623 61.3333 19.9188 61.3333 21.3333V50.6667Z" stroke="#6349FF" stroke-width="3" stroke-linecap="round" stroke-linejoin="round"/>
<path d="M32 45.3333C37.891 45.3333 42.6667 40.5577 42.6667 34.6667C42.6667 28.7756 37.891 24 32 24C26.109 24 21.3333 28.7756 21.3333 34.6667C21.3333 40.5577 26.109 45.3333 32 45.3333Z" stroke="#6349FF" stroke-width="3" stroke-linecap="round" stroke-linejoin="round"/>
</svg>
